<mxfile host="app.diagrams.net" agent="Mozilla/5.0 (Windows NT 10.0; Win64; x64) AppleWebKit/537.36 (KHTML, like Gecko) Chrome/137.0.0.0 Safari/537.36" version="27.1.4">
  <diagram name="第 1 页" id="qWH0tejkIUYA-mNvJ_dW">
    <mxGraphModel dx="788" dy="297" grid="1" gridSize="10" guides="1" tooltips="1" connect="1" arrows="1" fold="1" page="1" pageScale="1" pageWidth="827" pageHeight="1169" math="0" shadow="0">
      <root>
        <mxCell id="0" />
        <mxCell id="1" parent="0" />
        <mxCell id="kG2VPN0yLixIVYURetCY-2" value="" style="rounded=0;whiteSpace=wrap;html=1;" vertex="1" parent="1">
          <mxGeometry x="290" y="360" width="230" height="60" as="geometry" />
        </mxCell>
        <mxCell id="kG2VPN0yLixIVYURetCY-3" value="" style="rounded=0;whiteSpace=wrap;html=1;" vertex="1" parent="1">
          <mxGeometry x="290" y="420" width="60" height="90" as="geometry" />
        </mxCell>
        <mxCell id="kG2VPN0yLixIVYURetCY-4" value="冰箱" style="rounded=0;whiteSpace=wrap;html=1;dashed=1;" vertex="1" parent="1">
          <mxGeometry x="460" y="360" width="60" height="60" as="geometry" />
        </mxCell>
        <mxCell id="kG2VPN0yLixIVYURetCY-5" value="60" style="text;html=1;align=center;verticalAlign=middle;whiteSpace=wrap;rounded=0;" vertex="1" parent="1">
          <mxGeometry x="460" y="330" width="60" height="30" as="geometry" />
        </mxCell>
        <mxCell id="kG2VPN0yLixIVYURetCY-6" value="" style="rounded=0;whiteSpace=wrap;html=1;strokeColor=default;dashed=1;" vertex="1" parent="1">
          <mxGeometry x="290" y="360" width="60" height="60" as="geometry" />
        </mxCell>
        <mxCell id="kG2VPN0yLixIVYURetCY-7" value="60" style="text;html=1;align=center;verticalAlign=middle;whiteSpace=wrap;rounded=0;" vertex="1" parent="1">
          <mxGeometry x="290" y="330" width="60" height="30" as="geometry" />
        </mxCell>
        <mxCell id="kG2VPN0yLixIVYURetCY-8" value="110" style="text;html=1;align=center;verticalAlign=middle;whiteSpace=wrap;rounded=0;" vertex="1" parent="1">
          <mxGeometry x="350" y="330" width="110" height="30" as="geometry" />
        </mxCell>
        <mxCell id="kG2VPN0yLixIVYURetCY-9" value="灶台" style="rounded=1;whiteSpace=wrap;html=1;dashed=1;" vertex="1" parent="1">
          <mxGeometry x="360" y="370" width="90" height="40" as="geometry" />
        </mxCell>
      </root>
    </mxGraphModel>
  </diagram>
</mxfile>
